<svg xmlns="http://www.w3.org/2000/svg" viewBox="0 0 320 260" width="320" height="260">
  <rect width="100%" height="100%" fill="#f1f5f9" rx="8"/>
  
    <g>
    <polygon points="70,140 92,140 99.7,132.3 77.7,132.3" fill="#99f6e4" stroke="#1e293b" stroke-width="1.5"/>
    <polygon points="92,140 92,162 99.7,154.3 99.7,132.3" fill="#5eead4" stroke="#1e293b" stroke-width="1.5"/>
    <polygon points="70,162 92,162 99.7,154.3 77.7,154.3" fill="#0d9488" stroke="#1e293b" stroke-width="1.5"/>
  </g><g>
    <polygon points="80,126 102,126 109.7,118.3 87.7,118.3" fill="#99f6e4" stroke="#1e293b" stroke-width="1.5"/>
    <polygon points="102,126 102,148 109.7,140.3 109.7,118.3" fill="#5eead4" stroke="#1e293b" stroke-width="1.5"/>
    <polygon points="80,148 102,148 109.7,140.3 87.7,140.3" fill="#0d9488" stroke="#1e293b" stroke-width="1.5"/>
  </g><g>
    <polygon points="98,140 120,140 127.7,132.3 105.7,132.3" fill="#99f6e4" stroke="#1e293b" stroke-width="1.5"/>
    <polygon points="120,140 120,162 127.7,154.3 127.7,132.3" fill="#5eead4" stroke="#1e293b" stroke-width="1.5"/>
    <polygon points="98,162 120,162 127.7,154.3 105.7,154.3" fill="#0d9488" stroke="#1e293b" stroke-width="1.5"/>
  </g><g>
    <polygon points="108,126 130,126 137.7,118.3 115.7,118.3" fill="#99f6e4" stroke="#1e293b" stroke-width="1.5"/>
    <polygon points="130,126 130,148 137.7,140.3 137.7,118.3" fill="#5eead4" stroke="#1e293b" stroke-width="1.5"/>
    <polygon points="108,148 130,148 137.7,140.3 115.7,140.3" fill="#0d9488" stroke="#1e293b" stroke-width="1.5"/>
  </g><g>
    <polygon points="126,140 148,140 155.7,132.3 133.7,132.3" fill="#99f6e4" stroke="#1e293b" stroke-width="1.5"/>
    <polygon points="148,140 148,162 155.7,154.3 155.7,132.3" fill="#5eead4" stroke="#1e293b" stroke-width="1.5"/>
    <polygon points="126,162 148,162 155.7,154.3 133.7,154.3" fill="#0d9488" stroke="#1e293b" stroke-width="1.5"/>
  </g><g>
    <polygon points="136,126 158,126 165.7,118.3 143.7,118.3" fill="#99f6e4" stroke="#1e293b" stroke-width="1.5"/>
    <polygon points="158,126 158,148 165.7,140.3 165.7,118.3" fill="#5eead4" stroke="#1e293b" stroke-width="1.5"/>
    <polygon points="136,148 158,148 165.7,140.3 143.7,140.3" fill="#0d9488" stroke="#1e293b" stroke-width="1.5"/>
  </g>
    <g>
    <polygon points="70,100 92,100 99.7,92.3 77.7,92.3" fill="#99f6e4" stroke="#1e293b" stroke-width="1.5"/>
    <polygon points="92,100 92,122 99.7,114.3 99.7,92.3" fill="#5eead4" stroke="#1e293b" stroke-width="1.5"/>
    <polygon points="70,122 92,122 99.7,114.3 77.7,114.3" fill="#0d9488" stroke="#1e293b" stroke-width="1.5"/>
  </g><g>
    <polygon points="80,86 102,86 109.7,78.3 87.7,78.3" fill="#99f6e4" stroke="#1e293b" stroke-width="1.5"/>
    <polygon points="102,86 102,108 109.7,100.3 109.7,78.3" fill="#5eead4" stroke="#1e293b" stroke-width="1.5"/>
    <polygon points="80,108 102,108 109.7,100.3 87.7,100.3" fill="#0d9488" stroke="#1e293b" stroke-width="1.5"/>
  </g><g>
    <polygon points="98,100 120,100 127.7,92.3 105.7,92.3" fill="#99f6e4" stroke="#1e293b" stroke-width="1.5"/>
    <polygon points="120,100 120,122 127.7,114.3 127.7,92.3" fill="#5eead4" stroke="#1e293b" stroke-width="1.5"/>
    <polygon points="98,122 120,122 127.7,114.3 105.7,114.3" fill="#0d9488" stroke="#1e293b" stroke-width="1.5"/>
  </g><g>
    <polygon points="108,86 130,86 137.7,78.3 115.7,78.3" fill="#99f6e4" stroke="#1e293b" stroke-width="1.5"/>
    <polygon points="130,86 130,108 137.7,100.3 137.7,78.3" fill="#5eead4" stroke="#1e293b" stroke-width="1.5"/>
    <polygon points="108,108 130,108 137.7,100.3 115.7,100.3" fill="#0d9488" stroke="#1e293b" stroke-width="1.5"/>
  </g><g>
    <polygon points="126,100 148,100 155.7,92.3 133.7,92.3" fill="#99f6e4" stroke="#1e293b" stroke-width="1.5"/>
    <polygon points="148,100 148,122 155.7,114.3 155.7,92.3" fill="#5eead4" stroke="#1e293b" stroke-width="1.5"/>
    <polygon points="126,122 148,122 155.7,114.3 133.7,114.3" fill="#0d9488" stroke="#1e293b" stroke-width="1.5"/>
  </g><g>
    <polygon points="136,86 158,86 165.7,78.3 143.7,78.3" fill="#99f6e4" stroke="#1e293b" stroke-width="1.5"/>
    <polygon points="158,86 158,108 165.7,100.3 165.7,78.3" fill="#5eead4" stroke="#1e293b" stroke-width="1.5"/>
    <polygon points="136,108 158,108 165.7,100.3 143.7,100.3" fill="#0d9488" stroke="#1e293b" stroke-width="1.5"/>
  </g>
  
</svg>
