<svg xmlns="http://www.w3.org/2000/svg" viewBox="0 0 320 260" width="320" height="260">
  <rect width="100%" height="100%" fill="#f1f5f9" rx="8"/>
  
    <g>
    <polygon points="90,150 114,150 122.4,141.6 98.4,141.6" fill="#99f6e4" stroke="#1e293b" stroke-width="1.5"/>
    <polygon points="114,150 114,174 122.4,165.6 122.4,141.6" fill="#5eead4" stroke="#1e293b" stroke-width="1.5"/>
    <polygon points="90,174 114,174 122.4,165.6 98.4,165.6" fill="#0d9488" stroke="#1e293b" stroke-width="1.5"/>
  </g>
    <g>
    <polygon points="114,150 138,150 146.4,141.6 122.4,141.6" fill="#99f6e4" stroke="#1e293b" stroke-width="1.5"/>
    <polygon points="138,150 138,174 146.4,165.6 146.4,141.6" fill="#5eead4" stroke="#1e293b" stroke-width="1.5"/>
    <polygon points="114,174 138,174 146.4,165.6 122.4,165.6" fill="#0d9488" stroke="#1e293b" stroke-width="1.5"/>
  </g>
    <g>
    <polygon points="138,150 162,150 170.4,141.6 146.4,141.6" fill="#99f6e4" stroke="#1e293b" stroke-width="1.5"/>
    <polygon points="162,150 162,174 170.4,165.6 170.4,141.6" fill="#5eead4" stroke="#1e293b" stroke-width="1.5"/>
    <polygon points="138,174 162,174 170.4,165.6 146.4,165.6" fill="#0d9488" stroke="#1e293b" stroke-width="1.5"/>
  </g>
    <g>
    <polygon points="114,126 138,126 146.4,117.6 122.4,117.6" fill="#99f6e4" stroke="#1e293b" stroke-width="1.5"/>
    <polygon points="138,126 138,150 146.4,141.6 146.4,117.6" fill="#5eead4" stroke="#1e293b" stroke-width="1.5"/>
    <polygon points="114,150 138,150 146.4,141.6 122.4,141.6" fill="#0d9488" stroke="#1e293b" stroke-width="1.5"/>
  </g>
    <g>
    <polygon points="138,126 162,126 170.4,117.6 146.4,117.6" fill="#99f6e4" stroke="#1e293b" stroke-width="1.5"/>
    <polygon points="162,126 162,150 170.4,141.6 170.4,117.6" fill="#5eead4" stroke="#1e293b" stroke-width="1.5"/>
    <polygon points="138,150 162,150 170.4,141.6 146.4,141.6" fill="#0d9488" stroke="#1e293b" stroke-width="1.5"/>
  </g>
    <g>
    <polygon points="138,102 162,102 170.4,93.6 146.4,93.6" fill="#99f6e4" stroke="#1e293b" stroke-width="1.5"/>
    <polygon points="162,102 162,126 170.4,117.6 170.4,93.6" fill="#5eead4" stroke="#1e293b" stroke-width="1.5"/>
    <polygon points="138,126 162,126 170.4,117.6 146.4,117.6" fill="#0d9488" stroke="#1e293b" stroke-width="1.5"/>
  </g>
    <g>
    <polygon points="102,138 126,138 134.4,129.6 110.4,129.6" fill="#99f6e4" stroke="#1e293b" stroke-width="1.5"/>
    <polygon points="126,138 126,162 134.4,153.6 134.4,129.6" fill="#5eead4" stroke="#1e293b" stroke-width="1.5"/>
    <polygon points="102,162 126,162 134.4,153.6 110.4,153.6" fill="#0d9488" stroke="#1e293b" stroke-width="1.5"/>
  </g>
    <g>
    <polygon points="126,138 150,138 158.4,129.6 134.4,129.6" fill="#99f6e4" stroke="#1e293b" stroke-width="1.5"/>
    <polygon points="150,138 150,162 158.4,153.6 158.4,129.6" fill="#5eead4" stroke="#1e293b" stroke-width="1.5"/>
    <polygon points="126,162 150,162 158.4,153.6 134.4,153.6" fill="#0d9488" stroke="#1e293b" stroke-width="1.5"/>
  </g>
    <g>
    <polygon points="150,138 174,138 182.4,129.6 158.4,129.6" fill="#99f6e4" stroke="#1e293b" stroke-width="1.5"/>
    <polygon points="174,138 174,162 182.4,153.6 182.4,129.6" fill="#5eead4" stroke="#1e293b" stroke-width="1.5"/>
    <polygon points="150,162 174,162 182.4,153.6 158.4,153.6" fill="#0d9488" stroke="#1e293b" stroke-width="1.5"/>
  </g>
    <text x="160" y="220" fill="#64748b" font-size="11" font-weight="700" font-family="system-ui,sans-serif" text-anchor="middle">Include hidden cubes!</text>
  
</svg>
